<?xml version="1.0" standalone="no"?>
<!DOCTYPE svg PUBLIC "-//W3C//DTD SVG 20010904//EN"
 "http://www.w3.org/TR/2001/REC-SVG-20010904/DTD/svg10.dtd">
<svg version="1.0" xmlns="http://www.w3.org/2000/svg"
 width="213.000000pt" height="226.000000pt" fill="#001F3F" viewBox="0 0 213.000000 226.000000"
 preserveAspectRatio="xMidYMid meet">
<g transform="translate(0.000000,226.000000) scale(0.100000,-0.100000)" stroke="none">
<path d="M1685 2125 c-78 -21 -138 -50 -218 -105 -112 -76 -141 -119 -159
-237 -11 -74 -12 -76 -21 -45 -6 18 -15 31 -21 29 -21 -7 -48 -119 -43 -183 8
-105 18 -106 65 -10 54 108 143 229 216 292 86 73 106 73 32 -1 -81 -79 -173
-218 -217 -325 -18 -44 -35 -78 -37 -76 -6 6 -98 -22 -166 -51 -32 -13 -66
-22 -75 -19 -15 4 -57 20 -326 123 -49 18 -121 45 -160 59 -38 15 -86 35 -105
45 -35 18 -190 79 -266 104 -22 7 -45 10 -51 7 -7 -5 -12 -230 -14 -647 l-4
-640 90 -33 c50 -18 113 -41 140 -51 28 -10 80 -33 117 -50 36 -17 69 -31 73
-31 3 0 41 -13 83 -30 421 -162 424 -162 445 -152 12 6 58 23 102 38 44 15 85
30 90 34 13 9 76 30 111 36 15 3 36 10 47 16 11 5 63 25 116 43 94 32 212 75
361 132 l75 29 6 324 c8 439 10 955 4 962 -8 8 -219 -63 -337 -112 -26 -11
-51 -20 -57 -20 -5 0 12 32 39 71 27 40 47 76 44 80 -3 5 -25 9 -49 9 -56 0
-68 17 -18 25 73 13 102 26 129 63 15 20 31 39 34 42 34 28 111 167 128 233
l10 37 -81 -1 c-45 0 -104 -6 -132 -14z"/>
</g>
</svg>
